<?xml version="1.0" encoding="UTF-8" standalone="no"?>
<svg width="602px" height="858px" viewBox="0 0 602 858" version="1.1" xmlns="http://www.w3.org/2000/svg" xmlns:xlink="http://www.w3.org/1999/xlink" xmlns:sketch="http://www.bohemiancoding.com/sketch/ns">
    <!-- Generator: Sketch 3.0.4 (8053) - http://www.bohemiancoding.com/sketch -->
    <title>Group</title>
    <desc>Created with Sketch.</desc>
    <defs></defs>
    <g id="Page-1" stroke="none" stroke-width="1" fill="none" fill-rule="evenodd" sketch:type="MSPage">
        <g id="Group" sketch:type="MSLayerGroup" transform="translate(1.000000, 0.000000)">
            <g transform="translate(284.085348, 160.143258)" id="Oval" fill="#0F0F0F" sketch:type="MSShapeGroup">
                <ellipse cx="15.415484" cy="90.6239073" rx="15.415484" ry="15.4723744"></ellipse>
                <ellipse cx="15.415484" cy="165.77544" rx="15.415484" ry="15.4723744"></ellipse>
                <ellipse cx="15.415484" cy="240.926973" rx="15.415484" ry="15.4723744"></ellipse>
                <ellipse cx="15.415484" cy="15.4723744" rx="15.415484" ry="15.4723744"></ellipse>
            </g>
            <path d="M334.736224,79.879211 C334.736224,87.5844534 328.512773,93.8330823 320.835862,93.8330823 L278.168004,93.8330823 C270.491093,93.8330823 264.267642,87.5844534 264.267642,79.879211 L264.267642,37.0560993 C264.267642,29.3508568 270.491093,23.1022279 278.168004,23.1022279 L320.835862,23.1022279 C328.512773,23.1022279 334.736224,29.3508568 334.736224,37.0560993 L334.736224,79.879211 L334.736224,79.879211 Z" id="Shape" fill="#0F0F0F" sketch:type="MSShapeGroup"></path>
            <path d="M259.861016,78.1838808 C259.861016,85.7808166 254.038367,90.4335806 246.520016,91.941032 C229.662083,95.322851 198.950034,111.960074 181.999608,114.868881 C174.446021,116.16635 167.198542,108.637934 168.253401,101.111729 C169.790545,90.0865574 177.575365,68.6772119 177.575365,57.548154 C177.575365,46.4190961 169.891847,25.0075403 168.352501,13.9845787 C167.299843,6.45837368 174.699276,-1.07004164 182.252863,0.227427474 C199.203289,3.13623386 229.653274,19.773457 246.513409,23.155276 C254.027356,24.6649377 259.861016,29.3154914 259.861016,36.9124272 L259.861016,78.1838808 L259.861016,78.1838808 Z" id="Shape" fill="#0F0F0F" sketch:type="MSShapeGroup"></path>
            <g id="Shape" sketch:type="MSShapeGroup">
                <path d="M168.204953,103.607202 C168.326074,104.920144 168.676226,106.19993 169.21797,107.402355 C168.878829,106.129199 168.541891,104.871516 168.204953,103.607202 L168.204953,103.607202 Z" fill="#000000"></path>
                <path d="M177.104091,136.943538 C168.581531,136.101399 160.541255,131.923858 154.678966,125.155799 C148.098757,117.556653 145.09494,107.672016 146.444896,98.0504095 C147.259714,92.201852 149.094157,85.3542212 151.034306,78.1065189 C152.725604,71.7915798 155.555447,61.2217378 155.555447,57.5503643 C155.555447,57.0375656 155.498189,56.3810949 155.401292,55.6317899 C150.415484,36.950003 145.944994,20.1823698 142.229862,6.24397078 C140.868895,1.13587689 134.202799,-0.473250053 129.232407,0.242899849 C127.613781,0.474985465 125.874033,0.775591596 124.369923,1.64867558 L122.528873,2.71405908 L62.4459235,37.5291118 L17.5670451,63.5359629 C11.2444945,67.198495 8.98282275,75.9801726 12.6296858,82.3238461 L15.1203876,86.6494799 L56.6739258,158.892206 C60.3251933,165.23588 58.2617207,172.671461 51.9413722,176.336203 C47.3982089,178.968717 36.9002643,185.053781 14.5103749,198.026262 C-36.2263874,227.428194 61.4923657,353.998848 111.141235,405.88214 C186.25208,484.377916 288.914799,555.663566 277.507341,512.937709 L258.11246,440.237442 C258.11246,440.237442 213.517667,273.33915 177.104091,136.943538 Z M54.9055496,174.614349 C55.0486934,174.530356 55.0685133,174.519305 54.9055496,174.614349 L54.9055496,174.614349 L54.9055496,174.614349 Z M54.5730156,174.806649 C54.619262,174.780125 54.661104,174.755811 54.7007439,174.733707 C54.6655085,174.753601 54.6170598,174.782335 54.5730156,174.806649 L54.5730156,174.806649 Z" fill="#0F0F0F"></path>
            </g>
            <path d="M339.140648,78.1838808 C339.140648,85.7808166 345.861799,90.4335806 353.380151,91.941032 C370.238084,95.322851 401.401586,111.960074 418.352011,114.868881 C425.905599,116.16635 433.375502,108.637934 432.322844,101.111729 C430.7857,90.0865574 423.110991,68.6772119 423.110991,57.548154 C423.110991,46.4190961 430.851767,25.0075403 432.388911,13.9845787 C433.441568,6.45837368 426.072967,-1.07004164 418.519379,0.227427474 C401.568954,3.13623386 370.231477,19.773457 353.373544,23.155276 C345.859597,24.6649377 339.140648,29.3154914 339.140648,36.9124272 L339.140648,78.1838808 L339.140648,78.1838808 Z" id="Shape" fill="#0F0F0F" sketch:type="MSShapeGroup"></path>
            <path d="M586.292698,198.024052 C563.902809,185.049361 553.404864,178.966507 548.861701,176.333993 C542.541353,172.671461 540.475678,165.23588 544.129147,158.889996 L585.682686,86.6472696 L588.173387,82.3216358 C591.820251,75.9779623 589.558579,67.1962846 583.236028,63.5337526 L538.35715,37.5269015 L478.2742,2.71184874 L476.433151,1.64646524 C474.92904,0.773381257 473.189292,0.474985465 471.570667,0.240689509 C466.598072,-0.475460392 459.934178,1.13587689 458.573211,6.24176044 C454.811833,20.3569866 450.273074,37.3677571 445.214593,56.3324674 C445.168347,56.785587 445.137516,57.2055514 445.137516,57.548154 C445.137516,61.2747859 447.947538,71.9043071 449.625624,78.2546116 C451.528335,85.4536864 453.327542,92.2526898 454.133552,98.0371475 C455.474699,107.610127 452.475286,117.450557 445.903886,125.036441 C440.081237,131.760293 432.142263,135.970989 423.705589,136.917014 C387.289811,273.317046 342.690614,440.237442 342.690614,440.237442 L323.300137,512.935498 C311.892679,555.661355 414.555398,484.375706 489.666243,405.87993 C539.310708,353.996637 637.029461,227.425984 586.292698,198.024052 L586.292698,198.024052 Z M545.893119,174.614349 C545.730156,174.519305 545.747773,174.530356 545.893119,174.614349 L545.893119,174.614349 L545.893119,174.614349 Z M546.223451,174.806649 C546.179407,174.782335 546.130958,174.753601 546.095723,174.733707 C546.135363,174.755811 546.177205,174.780125 546.223451,174.806649 L546.223451,174.806649 Z" id="Shape" fill="#0F0F0F" sketch:type="MSShapeGroup"></path>
            <g transform="translate(0.000000, 620.349758)" id="Shape" fill="#0F0F0F" sketch:type="MSShapeGroup">
                <path d="M-0.358649899,92.1731935 L-0.358649899,-0.223832232 L46.8291614,-0.223832232 C58.0449512,-0.223832232 66.4140748,2.54807854 71.9346544,8.09190008 C75.8779255,12.0517726 77.8495611,17.0242411 77.8495611,23.0074199 L77.8495611,23.2714114 C77.8495611,32.8637312 73.1176357,39.7293959 63.653785,43.8627486 C69.6118799,45.7993148 74.1466417,48.5485978 77.2580704,52.112483 C80.3676214,55.6763683 81.9242746,60.4508432 81.9242746,66.434022 L81.9242746,66.6998992 C81.9242746,74.6196442 78.8560341,80.8460724 72.7233086,85.3754123 C66.5887053,89.9085235 58.0449512,92.1731935 47.0920462,92.1731935 L-0.358649899,92.1731935 L-0.358649899,92.1731935 Z M24.4839583,36.6029823 L40.5199276,36.6029823 C48.5811005,36.6029823 52.6126258,33.9196972 52.6126258,28.5493558 L52.6126258,28.2853643 C52.6126258,23.0055343 48.755731,20.3656193 41.0456971,20.3656193 L24.4839583,20.3656193 L24.4839583,36.6029823 L24.4839583,36.6029823 Z M24.4839583,71.5818563 L44.200314,71.5818563 C48.055331,71.5818563 51.0559725,70.8558797 53.2041164,69.4039264 C55.3503826,67.9519732 56.4244545,65.862669 56.4244545,63.1341282 L56.4244545,62.8701367 C56.4244545,57.3263152 52.2614869,54.5544044 43.9374293,54.5544044 L24.4839583,54.5544044 L24.4839583,71.5818563 L24.4839583,71.5818563 Z"></path>
                <path d="M148.17123,93.8891382 C134.675854,93.8891382 124.203652,90.3705086 116.756503,83.3275925 C109.307476,76.2903333 105.583901,65.7287876 105.583901,51.6486123 L105.583901,-0.225717886 L131.478049,-0.225717886 L131.478049,51.1206292 C131.478049,57.6317911 132.989636,62.5382617 136.01281,65.8381555 C139.035985,69.1380493 143.17642,70.7879961 148.434115,70.7879961 C153.691809,70.7879961 157.832244,69.2040471 160.855419,66.0342635 C163.878593,62.8663654 165.39018,58.1164041 165.39018,51.7787224 L165.39018,-0.227603539 L191.284328,-0.227603539 L191.284328,50.9867478 C191.284328,65.4195404 187.493154,76.1771941 179.914562,83.259709 C172.334093,90.3478808 161.752982,93.8891382 148.17123,93.8891382 L148.17123,93.8891382 Z"></path>
                <path d="M242.021083,92.1731935 L242.021083,22.2154454 L214.418185,22.2154454 L214.418185,-0.223832232 L295.123801,-0.223832232 L295.123801,22.2154454 L267.522781,22.2154454 L267.522781,92.1731935 L242.021083,92.1731935 L242.021083,92.1731935 Z"></path>
                <path d="M319.438762,92.1731935 L319.438762,-0.223832232 L344.938582,-0.223832232 L344.938582,69.7339158 L389.497546,69.7339158 L389.497546,92.1731935 L319.438762,92.1731935 L319.438762,92.1731935 Z"></path>
                <path d="M413.549622,92.1731935 L413.549622,-0.223832232 L487.551677,-0.223832232 L487.551677,21.5554667 L438.786557,21.5554667 L438.786557,35.5470163 L482.953072,35.5470163 L482.953072,55.7423662 L438.786557,55.7423662 L438.786557,70.3957802 L488.208889,70.3957802 L488.208889,92.1750791 L413.549622,92.1750791 L413.549622,92.1731935 Z"></path>
                <path d="M514.365921,92.1731935 L514.365921,-0.223832232 L557.873346,-0.223832232 C571.368722,-0.223832232 581.356464,3.12131723 587.844084,9.80784484 C593.27641,15.0876749 595.993511,22.2607011 595.993511,31.3231523 L595.993511,31.5871438 C595.993511,45.1393361 589.686155,54.5996601 577.06581,59.9662302 L599.014808,92.1731935 L569.571717,92.1731935 L551.04022,64.1900943 L550.775458,64.1900943 L539.863863,64.1900943 L539.863863,92.1731935 L514.365921,92.1731935 L514.365921,92.1731935 Z M539.865741,44.1267401 L556.692242,44.1267401 C560.982897,44.1267401 564.334677,43.1593998 566.745706,41.2247192 C569.154857,39.2900387 570.360371,36.6048679 570.360371,33.1710928 L570.360371,32.9071013 C570.360371,29.299846 569.154857,26.5713052 566.745706,24.7233647 C564.334677,22.8754242 560.939709,21.9495683 556.558922,21.9495683 L539.863863,21.9495683 L539.863863,44.1267401 L539.865741,44.1267401 Z"></path>
            </g>
            <g transform="translate(157.730846, 761.809009)" id="Shape" fill="#757575" sketch:type="MSShapeGroup">
                <path d="M47.4826178,95.7012513 C34.2501265,95.7012513 23.0343367,91.1473979 13.8333707,82.0396911 C4.63428247,72.9319843 0.0319217188,61.5596075 0.0319217188,47.9169038 L0.0319217188,47.6529123 C0.0319217188,34.1026056 4.65305995,22.7057154 13.8990919,13.4660128 C23.1432461,4.22631023 34.6876418,-0.395426708 48.5341568,-0.395426708 C65.3587803,-0.395426708 78.3715751,6.02899506 87.5725411,18.8778386 L68.3800771,33.7933585 C62.5984905,26.5788478 55.8949296,22.9697069 48.2693943,22.9697069 C41.9620382,22.9697069 36.7249986,25.3248882 32.5639086,30.0314795 C28.400941,34.7399566 26.320396,40.5232561 26.320396,47.3889208 L26.320396,47.6529123 C26.320396,54.6939428 28.378408,60.5677537 32.4981875,65.2743451 C36.6142114,69.9828221 41.873784,72.3361177 48.2693943,72.3361177 C52.7403126,72.3361177 56.5502637,71.3914053 59.7067583,69.4982091 C62.8613752,67.6068985 65.9709262,64.8123599 69.0391667,61.1164789 L88.2297529,74.844037 C83.4095734,81.4438246 77.8007396,86.5709167 71.4051294,90.221542 C65.0076414,93.8721673 57.0328449,95.7012513 47.4826178,95.7012513 L47.4826178,95.7012513 Z"></path>
                <path d="M148.430359,95.4372598 C131.079966,95.4372598 116.707682,90.3346812 105.317261,80.1257527 L119.514915,63.1001865 C128.714003,70.4919485 138.658558,74.1878296 149.352333,74.1878296 C156.36009,74.1878296 159.867723,72.0758975 159.867723,67.8520335 L159.867723,67.588042 C159.867723,65.6533614 158.816184,64.0467846 156.713106,62.7683114 C154.610028,61.4936096 150.490249,60.1510243 144.357523,58.742441 C138.748689,57.4224835 134.125674,56.1251539 130.490353,54.850452 C126.851277,53.5738646 123.304211,51.8598055 119.843521,49.7026178 C116.379076,47.5473157 113.817827,44.818775 112.152265,41.5188812 C110.486702,38.2189874 109.656737,34.2817427 109.656737,29.7052615 L109.656737,29.4393843 C109.656737,20.7276648 112.877075,13.622522 119.317752,8.12207054 C125.758428,2.62350468 134.411091,-0.127663899 145.27762,-0.127663899 C160.346549,-0.127663899 172.966894,3.96420438 183.133023,12.1479409 L170.383113,30.2313588 C161.794293,24.1595543 153.20735,21.123652 144.61853,21.123652 C141.638544,21.123652 139.360835,21.6742629 137.783527,22.7735989 C136.206218,23.8748206 135.417564,25.3060317 135.417564,27.0634608 L135.417564,27.3274523 C135.417564,29.4393843 136.487881,31.1119591 138.637902,32.3432908 C140.784168,33.5765083 145.012857,34.8964658 151.322091,36.305049 C162.800766,38.858224 171.389586,42.2429722 177.084796,46.4687219 C182.780006,50.6944715 185.630428,56.8963862 185.630428,65.0801227 L185.630428,65.3441142 C185.630428,74.6724425 182.254237,82.0208346 175.507488,87.3874047 C168.758861,92.7539748 159.734403,95.4372598 148.430359,95.4372598 L148.430359,95.4372598 Z"></path>
                <path d="M245.960599,95.4372598 C228.610206,95.4372598 214.237921,90.3346812 202.847501,80.1257527 L217.045155,63.1001865 C226.244243,70.4919485 236.188797,74.1878296 246.882573,74.1878296 C253.890329,74.1878296 257.397963,72.0758975 257.397963,67.8520335 L257.397963,67.588042 C257.397963,65.6533614 256.346424,64.0467846 254.243346,62.7683114 C252.140268,61.4936096 248.020488,60.1510243 241.887763,58.742441 C236.278929,57.4224835 231.655913,56.1251539 228.020593,54.850452 C224.381517,53.5738646 220.83445,51.8598055 217.373761,49.7026178 C213.909315,47.5473157 211.348067,44.818775 209.682504,41.5188812 C208.016941,38.2189874 207.186977,34.2817427 207.186977,29.7052615 L207.186977,29.4393843 C207.186977,20.7276648 210.407315,13.622522 216.847991,8.12207054 C223.288667,2.62350468 231.941331,-0.127663899 242.807859,-0.127663899 C257.876788,-0.127663899 270.497134,3.96420438 280.663262,12.1479409 L267.913352,30.2313588 C259.324532,24.1595543 250.73759,21.123652 242.14877,21.123652 C239.168783,21.123652 236.891075,21.6742629 235.313767,22.7735989 C233.736458,23.8748206 232.947804,25.3060317 232.947804,27.0634608 L232.947804,27.3274523 C232.947804,29.4393843 234.01812,31.1119591 236.168142,32.3432908 C238.314408,33.5765083 242.543097,34.8964658 248.852331,36.305049 C260.331005,38.858224 268.919825,42.2429722 274.615036,46.4687219 C280.310246,50.6944715 283.160667,56.8963862 283.160667,65.0801227 L283.160667,65.3441142 C283.160667,74.6724425 279.784476,82.0208346 273.037727,87.3874047 C266.2891,92.7539748 257.26652,95.4372598 245.960599,95.4372598 L245.960599,95.4372598 Z"></path>
            </g>
        </g>
    </g>
</svg>