<?xml version="1.0" encoding="UTF-8" standalone="no"?>
<svg width="602px" height="858px" viewBox="0 0 602 858" version="1.1" xmlns="http://www.w3.org/2000/svg" xmlns:xlink="http://www.w3.org/1999/xlink" xmlns:sketch="http://www.bohemiancoding.com/sketch/ns">
    <!-- Generator: Sketch 3.2.2 (9983) - http://www.bohemiancoding.com/sketch -->
    <title>logo</title>
    <desc>Created with Sketch.</desc>
    <defs></defs>
    <g id="Page-1" stroke="none" stroke-width="1" fill="none" fill-rule="evenodd" sketch:type="MSPage">
        <g id="logo" sketch:type="MSLayerGroup">
            <g id="Page-1" sketch:type="MSShapeGroup">
                <g id="Group">
                    <g id="Oval" transform="translate(285.085348, 160.143258)" fill="#FFFFFF">
                        <ellipse cx="15.415484" cy="90.6239073" rx="15.415484" ry="15.4723744"></ellipse>
                        <ellipse cx="15.415484" cy="165.77544" rx="15.415484" ry="15.4723744"></ellipse>
                        <ellipse cx="15.415484" cy="240.926973" rx="15.415484" ry="15.4723744"></ellipse>
                        <ellipse cx="15.415484" cy="15.4723744" rx="15.415484" ry="15.4723744"></ellipse>
                    </g>
                    <path d="M335.736224,79.879211 C335.736224,87.5844534 329.512773,93.8330823 321.835862,93.8330823 L279.168004,93.8330823 C271.491093,93.8330823 265.267642,87.5844534 265.267642,79.879211 L265.267642,37.0560993 C265.267642,29.3508568 271.491093,23.1022279 279.168004,23.1022279 L321.835862,23.1022279 C329.512773,23.1022279 335.736224,29.3508568 335.736224,37.0560993 L335.736224,79.879211 L335.736224,79.879211 Z" id="Shape" fill="#FFFFFF"></path>
                    <path d="M260.861016,78.1838808 C260.861016,85.7808166 255.038367,90.4335806 247.520016,91.941032 C230.662083,95.322851 199.950034,111.960074 182.999608,114.868881 C175.446021,116.16635 168.198542,108.637934 169.253401,101.111729 C170.790545,90.0865574 178.575365,68.6772119 178.575365,57.548154 C178.575365,46.4190961 170.891847,25.0075403 169.352501,13.9845787 C168.299843,6.45837368 175.699276,-1.07004164 183.252863,0.227427474 C200.203289,3.13623386 230.653274,19.773457 247.513409,23.155276 C255.027356,24.6649377 260.861016,29.3154914 260.861016,36.9124272 L260.861016,78.1838808 L260.861016,78.1838808 Z" id="Shape" fill="#FFFFFF"></path>
                    <g id="Shape" transform="translate(1.000000, 0.000000)">
                        <path d="M168.204953,103.607202 C168.326074,104.920144 168.676226,106.19993 169.21797,107.402355 C168.878829,106.129199 168.541891,104.871516 168.204953,103.607202 L168.204953,103.607202 L168.204953,103.607202 Z" fill="#000000"></path>
                        <path d="M177.104091,136.943538 C168.581531,136.101399 160.541255,131.923858 154.678966,125.155799 C148.098757,117.556653 145.09494,107.672016 146.444896,98.0504095 C147.259714,92.201852 149.094157,85.3542212 151.034306,78.1065189 C152.725604,71.7915798 155.555447,61.2217378 155.555447,57.5503643 C155.555447,57.0375656 155.498189,56.3810949 155.401292,55.6317899 C150.415484,36.950003 145.944994,20.1823698 142.229862,6.24397078 C140.868895,1.13587689 134.202799,-0.473250053 129.232407,0.242899849 C127.613781,0.474985465 125.874033,0.775591596 124.369923,1.64867558 L122.528873,2.71405908 L62.4459235,37.5291118 L17.5670451,63.5359629 C11.2444945,67.198495 8.98282275,75.9801726 12.6296858,82.3238461 L15.1203876,86.6494799 L56.6739258,158.892206 C60.3251933,165.23588 58.2617207,172.671461 51.9413722,176.336203 C47.3982089,178.968717 36.9002643,185.053781 14.5103749,198.026262 C-36.2263874,227.428194 61.4923657,353.998848 111.141235,405.88214 C186.25208,484.377916 288.914799,555.663566 277.507341,512.937709 L258.11246,440.237442 C258.11246,440.237442 213.517667,273.33915 177.104091,136.943538 L177.104091,136.943538 Z M54.9055496,174.614349 C55.0486934,174.530356 55.0685133,174.519305 54.9055496,174.614349 L54.9055496,174.614349 L54.9055496,174.614349 Z M54.5730156,174.806649 C54.619262,174.780125 54.661104,174.755811 54.7007439,174.733707 C54.6655085,174.753601 54.6170598,174.782335 54.5730156,174.806649 L54.5730156,174.806649 L54.5730156,174.806649 Z" fill="#FFFFFF"></path>
                    </g>
                    <path d="M340.140648,78.1838808 C340.140648,85.7808166 346.861799,90.4335806 354.380151,91.941032 C371.238084,95.322851 402.401586,111.960074 419.352011,114.868881 C426.905599,116.16635 434.375502,108.637934 433.322844,101.111729 C431.7857,90.0865574 424.110991,68.6772119 424.110991,57.548154 C424.110991,46.4190961 431.851767,25.0075403 433.388911,13.9845787 C434.441568,6.45837368 427.072967,-1.07004164 419.519379,0.227427474 C402.568954,3.13623386 371.231477,19.773457 354.373544,23.155276 C346.859597,24.6649377 340.140648,29.3154914 340.140648,36.9124272 L340.140648,78.1838808 L340.140648,78.1838808 Z" id="Shape" fill="#FFFFFF"></path>
                    <path d="M587.292698,198.024052 C564.902809,185.049361 554.404864,178.966507 549.861701,176.333993 C543.541353,172.671461 541.475678,165.23588 545.129147,158.889996 L586.682686,86.6472696 L589.173387,82.3216358 C592.820251,75.9779623 590.558579,67.1962846 584.236028,63.5337526 L539.35715,37.5269015 L479.2742,2.71184874 L477.433151,1.64646524 C475.92904,0.773381257 474.189292,0.474985465 472.570667,0.240689509 C467.598072,-0.475460392 460.934178,1.13587689 459.573211,6.24176044 C455.811833,20.3569866 451.273074,37.3677571 446.214593,56.3324674 C446.168347,56.785587 446.137516,57.2055514 446.137516,57.548154 C446.137516,61.2747859 448.947538,71.9043071 450.625624,78.2546116 C452.528335,85.4536864 454.327542,92.2526898 455.133552,98.0371475 C456.474699,107.610127 453.475286,117.450557 446.903886,125.036441 C441.081237,131.760293 433.142263,135.970989 424.705589,136.917014 C388.289811,273.317046 343.690614,440.237442 343.690614,440.237442 L324.300137,512.935498 C312.892679,555.661355 415.555398,484.375706 490.666243,405.87993 C540.310708,353.996637 638.029461,227.425984 587.292698,198.024052 L587.292698,198.024052 L587.292698,198.024052 Z M546.893119,174.614349 C546.730156,174.519305 546.747773,174.530356 546.893119,174.614349 L546.893119,174.614349 L546.893119,174.614349 Z M547.223451,174.806649 C547.179407,174.782335 547.130958,174.753601 547.095723,174.733707 C547.135363,174.755811 547.177205,174.780125 547.223451,174.806649 L547.223451,174.806649 L547.223451,174.806649 Z" id="Shape" fill="#FFFFFF"></path>
                    <g id="Shape" transform="translate(0.000000, 619.349758)" fill="#FFFFFF">
                        <path d="M0.641350101,93.1731935 L0.641350101,0.776167768 L47.8291614,0.776167768 C59.0449512,0.776167768 67.4140748,3.54807854 72.9346544,9.09190008 C76.8779255,13.0517726 78.8495611,18.0242411 78.8495611,24.0074199 L78.8495611,24.2714114 C78.8495611,33.8637312 74.1176357,40.7293959 64.653785,44.8627486 C70.6118799,46.7993148 75.1466417,49.5485978 78.2580704,53.112483 C81.3676214,56.6763683 82.9242746,61.4508432 82.9242746,67.434022 L82.9242746,67.6998992 C82.9242746,75.6196442 79.8560341,81.8460724 73.7233086,86.3754123 C67.5887053,90.9085235 59.0449512,93.1731935 48.0920462,93.1731935 L0.641350101,93.1731935 L0.641350101,93.1731935 Z M25.4839583,37.6029823 L41.5199276,37.6029823 C49.5811005,37.6029823 53.6126258,34.9196972 53.6126258,29.5493558 L53.6126258,29.2853643 C53.6126258,24.0055343 49.755731,21.3656193 42.0456971,21.3656193 L25.4839583,21.3656193 L25.4839583,37.6029823 L25.4839583,37.6029823 Z M25.4839583,72.5818563 L45.200314,72.5818563 C49.055331,72.5818563 52.0559725,71.8558797 54.2041164,70.4039264 C56.3503826,68.9519732 57.4244545,66.862669 57.4244545,64.1341282 L57.4244545,63.8701367 C57.4244545,58.3263152 53.2614869,55.5544044 44.9374293,55.5544044 L25.4839583,55.5544044 L25.4839583,72.5818563 L25.4839583,72.5818563 Z"></path>
                        <path d="M149.17123,94.8891382 C135.675854,94.8891382 125.203652,91.3705086 117.756503,84.3275925 C110.307476,77.2903333 106.583901,66.7287876 106.583901,52.6486123 L106.583901,0.774282114 L132.478049,0.774282114 L132.478049,52.1206292 C132.478049,58.6317911 133.989636,63.5382617 137.01281,66.8381555 C140.035985,70.1380493 144.17642,71.7879961 149.434115,71.7879961 C154.691809,71.7879961 158.832244,70.2040471 161.855419,67.0342635 C164.878593,63.8663654 166.39018,59.1164041 166.39018,52.7787224 L166.39018,0.772396461 L192.284328,0.772396461 L192.284328,51.9867478 C192.284328,66.4195404 188.493154,77.1771941 180.914562,84.259709 C173.334093,91.3478808 162.752982,94.8891382 149.17123,94.8891382 L149.17123,94.8891382 L149.17123,94.8891382 Z"></path>
                        <path d="M243.021083,93.1731935 L243.021083,23.2154454 L215.418185,23.2154454 L215.418185,0.776167768 L296.123801,0.776167768 L296.123801,23.2154454 L268.522781,23.2154454 L268.522781,93.1731935 L243.021083,93.1731935 L243.021083,93.1731935 Z"></path>
                        <path d="M320.438762,93.1731935 L320.438762,0.776167768 L345.938582,0.776167768 L345.938582,70.7339158 L390.497546,70.7339158 L390.497546,93.1731935 L320.438762,93.1731935 L320.438762,93.1731935 Z"></path>
                        <path d="M414.549622,93.1731935 L414.549622,0.776167768 L488.551677,0.776167768 L488.551677,22.5554667 L439.786557,22.5554667 L439.786557,36.5470163 L483.953072,36.5470163 L483.953072,56.7423662 L439.786557,56.7423662 L439.786557,71.3957802 L489.208889,71.3957802 L489.208889,93.1750791 L414.549622,93.1750791 L414.549622,93.1731935 L414.549622,93.1731935 Z"></path>
                        <path d="M515.365921,93.1731935 L515.365921,0.776167768 L558.873346,0.776167768 C572.368722,0.776167768 582.356464,4.12131723 588.844084,10.8078448 C594.27641,16.0876749 596.993511,23.2607011 596.993511,32.3231523 L596.993511,32.5871438 C596.993511,46.1393361 590.686155,55.5996601 578.06581,60.9662302 L600.014808,93.1731935 L570.571717,93.1731935 L552.04022,65.1900943 L551.775458,65.1900943 L540.863863,65.1900943 L540.863863,93.1731935 L515.365921,93.1731935 L515.365921,93.1731935 Z M540.865741,45.1267401 L557.692242,45.1267401 C561.982897,45.1267401 565.334677,44.1593998 567.745706,42.2247192 C570.154857,40.2900387 571.360371,37.6048679 571.360371,34.1710928 L571.360371,33.9071013 C571.360371,30.299846 570.154857,27.5713052 567.745706,25.7233647 C565.334677,23.8754242 561.939709,22.9495683 557.558922,22.9495683 L540.863863,22.9495683 L540.863863,45.1267401 L540.865741,45.1267401 L540.865741,45.1267401 Z"></path>
                    </g>
                    <g id="Shape" transform="translate(158.730846, 760.809009)" fill-opacity="0.8" fill="#FFFFFF">
                        <path d="M47.4826178,96.7012513 C34.2501265,96.7012513 23.0343367,92.1473979 13.8333707,83.0396911 C4.63428247,73.9319843 0.0319217188,62.5596075 0.0319217188,48.9169038 L0.0319217188,48.6529123 C0.0319217188,35.1026056 4.65305995,23.7057154 13.8990919,14.4660128 C23.1432461,5.22631023 34.6876418,0.604573292 48.5341568,0.604573292 C65.3587803,0.604573292 78.3715751,7.02899506 87.5725411,19.8778386 L68.3800771,34.7933585 C62.5984905,27.5788478 55.8949296,23.9697069 48.2693943,23.9697069 C41.9620382,23.9697069 36.7249986,26.3248882 32.5639086,31.0314795 C28.400941,35.7399566 26.320396,41.5232561 26.320396,48.3889208 L26.320396,48.6529123 C26.320396,55.6939428 28.378408,61.5677537 32.4981875,66.2743451 C36.6142114,70.9828221 41.873784,73.3361177 48.2693943,73.3361177 C52.7403126,73.3361177 56.5502637,72.3914053 59.7067583,70.4982091 C62.8613752,68.6068985 65.9709262,65.8123599 69.0391667,62.1164789 L88.2297529,75.844037 C83.4095734,82.4438246 77.8007396,87.5709167 71.4051294,91.221542 C65.0076414,94.8721673 57.0328449,96.7012513 47.4826178,96.7012513 L47.4826178,96.7012513 L47.4826178,96.7012513 Z"></path>
                        <path d="M148.430359,96.4372598 C131.079966,96.4372598 116.707682,91.3346812 105.317261,81.1257527 L119.514915,64.1001865 C128.714003,71.4919485 138.658558,75.1878296 149.352333,75.1878296 C156.36009,75.1878296 159.867723,73.0758975 159.867723,68.8520335 L159.867723,68.588042 C159.867723,66.6533614 158.816184,65.0467846 156.713106,63.7683114 C154.610028,62.4936096 150.490249,61.1510243 144.357523,59.742441 C138.748689,58.4224835 134.125674,57.1251539 130.490353,55.850452 C126.851277,54.5738646 123.304211,52.8598055 119.843521,50.7026178 C116.379076,48.5473157 113.817827,45.818775 112.152265,42.5188812 C110.486702,39.2189874 109.656737,35.2817427 109.656737,30.7052615 L109.656737,30.4393843 C109.656737,21.7276648 112.877075,14.622522 119.317752,9.12207054 C125.758428,3.62350468 134.411091,0.872336101 145.27762,0.872336101 C160.346549,0.872336101 172.966894,4.96420438 183.133023,13.1479409 L170.383113,31.2313588 C161.794293,25.1595543 153.20735,22.123652 144.61853,22.123652 C141.638544,22.123652 139.360835,22.6742629 137.783527,23.7735989 C136.206218,24.8748206 135.417564,26.3060317 135.417564,28.0634608 L135.417564,28.3274523 C135.417564,30.4393843 136.487881,32.1119591 138.637902,33.3432908 C140.784168,34.5765083 145.012857,35.8964658 151.322091,37.305049 C162.800766,39.858224 171.389586,43.2429722 177.084796,47.4687219 C182.780006,51.6944715 185.630428,57.8963862 185.630428,66.0801227 L185.630428,66.3441142 C185.630428,75.6724425 182.254237,83.0208346 175.507488,88.3874047 C168.758861,93.7539748 159.734403,96.4372598 148.430359,96.4372598 L148.430359,96.4372598 L148.430359,96.4372598 Z"></path>
                        <path d="M245.960599,96.4372598 C228.610206,96.4372598 214.237921,91.3346812 202.847501,81.1257527 L217.045155,64.1001865 C226.244243,71.4919485 236.188797,75.1878296 246.882573,75.1878296 C253.890329,75.1878296 257.397963,73.0758975 257.397963,68.8520335 L257.397963,68.588042 C257.397963,66.6533614 256.346424,65.0467846 254.243346,63.7683114 C252.140268,62.4936096 248.020488,61.1510243 241.887763,59.742441 C236.278929,58.4224835 231.655913,57.1251539 228.020593,55.850452 C224.381517,54.5738646 220.83445,52.8598055 217.373761,50.7026178 C213.909315,48.5473157 211.348067,45.818775 209.682504,42.5188812 C208.016941,39.2189874 207.186977,35.2817427 207.186977,30.7052615 L207.186977,30.4393843 C207.186977,21.7276648 210.407315,14.622522 216.847991,9.12207054 C223.288667,3.62350468 231.941331,0.872336101 242.807859,0.872336101 C257.876788,0.872336101 270.497134,4.96420438 280.663262,13.1479409 L267.913352,31.2313588 C259.324532,25.1595543 250.73759,22.123652 242.14877,22.123652 C239.168783,22.123652 236.891075,22.6742629 235.313767,23.7735989 C233.736458,24.8748206 232.947804,26.3060317 232.947804,28.0634608 L232.947804,28.3274523 C232.947804,30.4393843 234.01812,32.1119591 236.168142,33.3432908 C238.314408,34.5765083 242.543097,35.8964658 248.852331,37.305049 C260.331005,39.858224 268.919825,43.2429722 274.615036,47.4687219 C280.310246,51.6944715 283.160667,57.8963862 283.160667,66.0801227 L283.160667,66.3441142 C283.160667,75.6724425 279.784476,83.0208346 273.037727,88.3874047 C266.2891,93.7539748 257.26652,96.4372598 245.960599,96.4372598 L245.960599,96.4372598 L245.960599,96.4372598 Z"></path>
                    </g>
                </g>
            </g>
        </g>
    </g>
</svg>