<?xml version="1.0" encoding="UTF-8" standalone="no"?>
<svg width="253px" height="43px" viewBox="0 0 253 43" version="1.1" xmlns="http://www.w3.org/2000/svg" xmlns:xlink="http://www.w3.org/1999/xlink" xmlns:sketch="http://www.bohemiancoding.com/sketch/ns">
    <!-- Generator: Sketch 3.0.3 (7891) - http://www.bohemiancoding.com/sketch -->
    <title>Untitled 3</title>
    <desc>Created with Sketch.</desc>
    <defs></defs>
    <g id="Page-1" stroke="none" stroke-width="1" fill="none" fill-rule="evenodd" sketch:type="MSPage">
        <path d="M0,38.28 L0,3.72 C0,2.6799948 0.3599964,1.8000036 1.08,1.08 C1.8000036,0.3599964 2.6799948,0 3.72,0 L18.84,0 C23.6800242,0 27.3399876,1.2399876 29.82,3.72 C31.7000094,5.6000094 32.64,7.9199862 32.64,10.68 L32.64,10.8 C32.64,14.9600208 30.64002,18.0799896 26.64,20.16 C32.2000278,22.0400094 34.98,25.4399754 34.98,30.36 L34.98,30.48 C34.98,34.1600184 33.580014,36.99999 30.78,39 C27.979986,41.00001 24.2000238,42 19.44,42 L3.72,42 C2.6799948,42 1.8000036,41.6400036 1.08,40.92 C0.3599964,40.1999964 0,39.3200052 0,38.28 Z M7.26,17.7 L17.34,17.7 C19.7800122,17.7 21.7099929,17.2200048 23.13,16.26 C24.5500071,15.2999952 25.26,13.8800094 25.26,12 L25.26,11.88 C25.26,10.1999916 24.6200064,8.8900047 23.34,7.95 C22.0599936,7.0099953 20.2400118,6.54 17.88,6.54 L7.26,6.54 L7.26,17.7 Z M7.26,35.46 L19.5,35.46 C22.0600128,35.46 24.0499929,34.9700049 25.47,33.99 C26.8900071,33.0099951 27.6,31.5800094 27.6,29.7 L27.6,29.58 C27.6,25.8199812 24.7200288,23.94 18.96,23.94 L7.26,23.94 L7.26,35.46 Z M57.54,42.72 C52.739976,42.72 48.740016,41.1300159 45.54,37.95 C42.339984,34.7699841 40.74,30.9000228 40.74,26.34 L40.74,26.22 C40.74,21.619977 42.3599838,17.7100161 45.6,14.49 C48.8400162,11.2699839 52.859976,9.66 57.66,9.66 C62.460024,9.66 66.4699839,11.259984 69.69,14.46 C72.9100161,17.660016 74.52,21.5399772 74.52,26.1 L74.52,26.22 C74.52,30.7800228 72.9000162,34.6699839 69.66,37.89 C66.4199838,41.1100161 62.3800242,42.72 57.54,42.72 Z M57.66,36.36 C60.5400144,36.36 62.8599912,35.3900097 64.62,33.45 C66.3800088,31.5099903 67.26,29.140014 67.26,26.34 L67.26,26.22 C67.26,23.3799858 66.3400092,20.9700099 64.5,18.99 C62.6599908,17.0099901 60.340014,16.02 57.54,16.02 C54.6999858,16.02 52.4000088,16.9899903 50.64,18.93 C48.8799912,20.8700097 48,23.2599858 48,26.1 L48,26.22 C48,29.020014 48.9199908,31.4099901 50.76,33.39 C52.6000092,35.3700099 54.8999862,36.36 57.66,36.36 Z M91.62,42.54 C89.6599902,42.54 88.3200036,41.4600108 87.6,39.3 L79.08,15.18 C78.8399988,14.5399968 78.72,13.920003 78.72,13.32 C78.72,12.3999954 79.0499967,11.6100033 79.71,10.95 C80.3700033,10.2899967 81.2199948,9.96 82.26,9.96 C84.0200088,9.96 85.199997,10.9199904 85.8,12.84 L91.92,32.04 L98.1,12.84 C98.700003,10.9199904 99.9399906,9.96 101.82,9.96 L102.24,9.96 C104.120009,9.96 105.359997,10.9199904 105.96,12.84 L112.2,32.04 L118.38,12.78 C118.940003,10.8999906 120.119991,9.96 121.92,9.96 C122.880005,9.96 123.689997,10.2899967 124.35,10.95 C125.010003,11.6100033 125.34,12.3999954 125.34,13.32 C125.34,13.8000024 125.240001,14.339997 125.04,14.94 L116.4,39.3 C115.639996,41.4600108 114.30001,42.54 112.38,42.54 L112.14,42.54 C110.13999,42.54 108.820003,41.5000104 108.18,39.42 L102,20.58 L95.76,39.42 C95.1199968,41.5000104 93.8200098,42.54 91.86,42.54 L91.62,42.54 Z M132.18,38.7 L132.18,13.62 C132.18,12.5799948 132.529997,11.7100035 133.23,11.01 C133.930003,10.3099965 134.779995,9.96 135.78,9.96 C136.820005,9.96 137.689996,10.3199964 138.39,11.04 C139.090003,11.7600036 139.44,12.619995 139.44,13.62 L139.44,15.12 C142.080013,11.4799818 145.299981,9.66 149.1,9.66 C153.580022,9.66 156.739991,11.5199814 158.58,15.24 C161.380014,11.5199814 164.939978,9.66 169.26,9.66 C172.740017,9.66 175.45999,10.7199894 177.42,12.84 C179.38001,14.9600106 180.36,17.9399808 180.36,21.78 L180.36,38.7 C180.36,39.700005 180.010004,40.5499965 179.31,41.25 C178.609997,41.9500035 177.760005,42.3 176.76,42.3 C175.719995,42.3 174.850004,41.9500035 174.15,41.25 C173.449996,40.5499965 173.1,39.700005 173.1,38.7 L173.1,24 C173.1,21.4799874 172.540006,19.5600066 171.42,18.24 C170.299994,16.9199934 168.72001,16.26 166.68,16.26 C164.63999,16.26 163.000006,16.9499931 161.76,18.33 C160.519994,19.7100069 159.9,21.6399876 159.9,24.12 L159.9,38.7 C159.9,39.700005 159.550003,40.5499965 158.85,41.25 C158.149997,41.9500035 157.300005,42.3 156.3,42.3 C155.259995,42.3 154.390004,41.9500035 153.69,41.25 C152.989997,40.5499965 152.64,39.700005 152.64,38.7 L152.64,23.94 C152.64,21.4999878 152.080006,19.6100067 150.96,18.27 C149.839994,16.9299933 148.26001,16.26 146.22,16.26 C144.17999,16.26 142.540006,16.9699929 141.3,18.39 C140.059994,19.8100071 139.44,21.719988 139.44,24.12 L139.44,38.7 C139.44,39.700005 139.090003,40.5499965 138.39,41.25 C137.689996,41.9500035 136.820005,42.3 135.78,42.3 C134.779995,42.3 133.930003,41.9500035 133.23,41.25 C132.529997,40.5499965 132.18,39.700005 132.18,38.7 Z M198.3,42.66 C195.179984,42.66 192.530011,41.7900087 190.35,40.05 C188.169989,38.3099913 187.08,35.9200152 187.08,32.88 L187.08,32.76 C187.08,29.4399834 188.259988,26.9100087 190.62,25.17 C192.980012,23.4299913 196.15998,22.56 200.16,22.56 C203.080015,22.56 205.919986,22.9999956 208.68,23.88 L208.68,23.1 C208.68,20.8599888 208.010007,19.1500059 206.67,17.97 C205.329993,16.7899941 203.380013,16.2 200.82,16.2 C198.259987,16.2 195.920011,16.6199958 193.8,17.46 C193.399998,17.5800006 193.020002,17.64 192.66,17.64 C191.819996,17.64 191.100003,17.3500029 190.5,16.77 C189.899997,16.1899971 189.6,15.4800042 189.6,14.64 C189.6,13.239993 190.259993,12.2800026 191.58,11.76 C194.860016,10.5199938 198.259982,9.9 201.78,9.9 C206.500024,9.9 209.999989,11.0799882 212.28,13.44 C214.560011,15.6800112 215.7,18.9399786 215.7,23.22 L215.7,38.82 C215.7,39.820005 215.360003,40.6499967 214.68,41.31 C213.999997,41.9700033 213.160005,42.3 212.16,42.3 C211.119995,42.3 210.270003,42.000003 209.61,41.4 C208.949997,40.799997 208.62,40.0800042 208.62,39.24 L208.62,38.04 C206.059987,41.1200154 202.620022,42.66 198.3,42.66 Z M200.34,37.38 C202.780012,37.38 204.799992,36.7500063 206.4,35.49 C208.000008,34.2299937 208.8,32.60001 208.8,30.6 L208.8,28.44 C206.639989,27.5999958 204.240013,27.18 201.6,27.18 C199.279988,27.18 197.460007,27.6499953 196.14,28.59 C194.819993,29.5300047 194.16,30.8199918 194.16,32.46 L194.16,32.58 C194.16,34.0600074 194.739994,35.2299957 195.9,36.09 C197.060006,36.9500043 198.539991,37.38 200.34,37.38 Z M224.4,38.7 L224.4,13.62 C224.4,12.5799948 224.749997,11.7100035 225.45,11.01 C226.150003,10.3099965 226.999995,9.96 228,9.96 C229.040005,9.96 229.909997,10.3199964 230.61,11.04 C231.310004,11.7600036 231.66,12.619995 231.66,13.62 L231.66,15.18 C234.220013,11.4999816 237.51998,9.66 241.56,9.66 C245.080018,9.66 247.83999,10.7499891 249.84,12.93 C251.84001,15.1100109 252.84,18.0599814 252.84,21.78 L252.84,38.7 C252.84,39.700005 252.500003,40.5499965 251.82,41.25 C251.139997,41.9500035 250.280005,42.3 249.24,42.3 C248.199995,42.3 247.330004,41.9500035 246.63,41.25 C245.929996,40.5499965 245.58,39.700005 245.58,38.7 L245.58,24 C245.58,21.5199876 244.990006,19.6100067 243.81,18.27 C242.629994,16.9299933 240.960011,16.26 238.8,16.26 C236.679989,16.26 234.960007,16.959993 233.64,18.36 C232.319993,19.760007 231.66,21.6799878 231.66,24.12 L231.66,38.7 C231.66,39.700005 231.310004,40.5499965 230.61,41.25 C229.909997,41.9500035 229.040005,42.3 228,42.3 C226.999995,42.3 226.150003,41.9500035 225.45,41.25 C224.749997,40.5499965 224.4,39.700005 224.4,38.7 L224.4,38.7 Z" id="Bowman" fill="#EC9B04" sketch:type="MSShapeGroup"></path>
    </g>
</svg>